<svg width="76" height="132" viewBox="0 0 76 132" fill="none" xmlns="http://www.w3.org/2000/svg">
<g clip-path="url(#clip0_60_4710)">
<path d="M38 20.0001C28.0588 20.0001 20 28.0588 20 38.0001C20 47.9413 28.0588 56.0001 38 56.0001C47.9412 56.0001 56 47.9413 56 38.0001C56 28.0588 47.9412 20.0001 38 20.0001ZM44.9225 40.3082C44.9225 40.3082 46.5144 41.8794 46.9062 42.6088C46.9175 42.6238 46.9231 42.6388 46.9269 42.6463C47.0862 42.9144 47.1237 43.1226 47.045 43.2782C46.9137 43.5369 46.4637 43.6644 46.31 43.6757H43.4975C43.3025 43.6757 42.8937 43.6251 42.3987 43.2838C42.0181 43.0176 41.6431 42.5807 41.2775 42.1551C40.7319 41.5213 40.2594 40.9738 39.7831 40.9738C39.7226 40.9737 39.6625 40.9832 39.605 41.0019C39.245 41.1182 38.7838 41.6319 38.7838 43.0007C38.7838 43.4282 38.4462 43.6738 38.2081 43.6738H36.92C36.4812 43.6738 34.1956 43.5201 32.1706 41.3844C29.6919 38.7688 27.4606 33.5226 27.4419 33.4738C27.3012 33.1344 27.5919 32.9526 27.9087 32.9526H30.7494C31.1281 32.9526 31.2519 33.1832 31.3381 33.3876C31.4394 33.6257 31.8106 34.5726 32.42 35.6376C33.4081 37.3738 34.0138 38.0788 34.4994 38.0788C34.5904 38.0777 34.6799 38.0546 34.76 38.0113C35.3937 37.6588 35.2756 35.3994 35.2475 34.9307C35.2475 34.8426 35.2456 33.9201 34.9212 33.4776C34.6887 33.1569 34.2931 33.0351 34.0531 32.9901C34.1503 32.856 34.2782 32.7473 34.4262 32.6732C34.8612 32.4557 35.645 32.4238 36.4231 32.4238H36.8563C37.7 32.4351 37.9175 32.4894 38.2231 32.5663C38.8419 32.7144 38.855 33.1138 38.8006 34.4807C38.7838 34.8688 38.7669 35.3076 38.7669 35.8251C38.7669 35.9376 38.7612 36.0576 38.7612 36.1851C38.7425 36.8807 38.72 37.6701 39.2112 37.9944C39.2753 38.0346 39.3494 38.056 39.425 38.0563C39.5956 38.0563 40.1094 38.0563 41.5006 35.6694C41.9297 34.9012 42.3025 34.1028 42.6162 33.2807C42.6444 33.2319 42.7269 33.0819 42.8244 33.0238C42.8963 32.9871 42.9761 32.9685 43.0569 32.9694H46.3962C46.76 32.9694 47.0094 33.0238 47.0562 33.1644C47.1387 33.3876 47.0412 34.0682 45.5169 36.1326L44.8362 37.0307C43.4544 38.8419 43.4544 38.9338 44.9225 40.3082Z" fill="#FF7020"/>
</g>
<g clip-path="url(#clip1_60_4710)">
<path d="M38 76.0001C28.0588 76.0001 20 84.0588 20 94.0001C20 103.941 28.0588 112 38 112C47.9412 112 56 103.941 56 94.0001C56 84.0588 47.9412 76.0001 38 76.0001ZM44.9225 96.3082C44.9225 96.3082 46.5144 97.8794 46.9062 98.6088C46.9175 98.6238 46.9231 98.6388 46.9269 98.6463C47.0862 98.9144 47.1237 99.1226 47.045 99.2782C46.9137 99.5369 46.4637 99.6644 46.31 99.6757H43.4975C43.3025 99.6757 42.8937 99.6251 42.3987 99.2838C42.0181 99.0176 41.6431 98.5807 41.2775 98.1551C40.7319 97.5213 40.2594 96.9738 39.7831 96.9738C39.7226 96.9737 39.6625 96.9832 39.605 97.0019C39.245 97.1182 38.7838 97.6319 38.7838 99.0007C38.7838 99.4282 38.4462 99.6738 38.2081 99.6738H36.92C36.4812 99.6738 34.1956 99.5201 32.1706 97.3844C29.6919 94.7688 27.4606 89.5226 27.4419 89.4738C27.3012 89.1344 27.5919 88.9526 27.9087 88.9526H30.7494C31.1281 88.9526 31.2519 89.1832 31.3381 89.3876C31.4394 89.6257 31.8106 90.5726 32.42 91.6376C33.4081 93.3738 34.0138 94.0788 34.4994 94.0788C34.5904 94.0777 34.6799 94.0546 34.76 94.0113C35.3937 93.6588 35.2756 91.3994 35.2475 90.9307C35.2475 90.8426 35.2456 89.9201 34.9212 89.4776C34.6887 89.1569 34.2931 89.0351 34.0531 88.9901C34.1503 88.856 34.2782 88.7473 34.4262 88.6732C34.8612 88.4557 35.645 88.4238 36.4231 88.4238H36.8563C37.7 88.4351 37.9175 88.4894 38.2231 88.5663C38.8419 88.7144 38.855 89.1138 38.8006 90.4807C38.7838 90.8688 38.7669 91.3076 38.7669 91.8251C38.7669 91.9376 38.7612 92.0576 38.7612 92.1851C38.7425 92.8807 38.72 93.6701 39.2112 93.9944C39.2753 94.0346 39.3494 94.056 39.425 94.0563C39.5956 94.0563 40.1094 94.0563 41.5006 91.6694C41.9297 90.9012 42.3025 90.1028 42.6162 89.2807C42.6444 89.2319 42.7269 89.0819 42.8244 89.0238C42.8963 88.9871 42.9761 88.9685 43.0569 88.9694H46.3962C46.76 88.9694 47.0094 89.0238 47.0562 89.1644C47.1387 89.3876 47.0412 90.0682 45.5169 92.1326L44.8362 93.0307C43.4544 94.8419 43.4544 94.9338 44.9225 96.3082Z" fill="#FFAB08"/>
</g>
<rect x="0.5" y="0.5" width="75" height="131" rx="4.5" stroke="#9747FF" stroke-dasharray="10 5"/>
<defs>
<clipPath id="clip0_60_4710">
<rect width="36" height="36" fill="white" transform="translate(20 20)"/>
</clipPath>
<clipPath id="clip1_60_4710">
<rect width="36" height="36" fill="white" transform="translate(20 76)"/>
</clipPath>
</defs>
</svg>
